<svg xmlns="http://www.w3.org/2000/svg" viewBox="0 0 196.5 39.04"><defs><style>.cls-1{fill:#056700;}</style></defs><g id="Capa_2" data-name="Capa 2"><g id="Capa_1-2" data-name="Capa 1"><path class="cls-1" d="M166.45,39c-6.85-.09-12.45-2.69-15.66-8.89-3.11-6-2.84-12.23,1.27-17.74,4.52-6.06,11-7.63,18.12-6.37,6.48,1.15,11.1,4.85,12.93,11.27,1.9,6.67.62,12.74-4.71,17.53A17,17,0,0,1,166.45,39Zm0-26.24a9.3,9.3,0,0,0-9.33,9.54c0,5.51,3.94,9.62,9.2,9.65a9.47,9.47,0,0,0,9.39-9.32C175.68,17,171.75,12.75,166.45,12.73Z"/><path class="cls-1" d="M69,31.24a17.45,17.45,0,0,1-11.64,7.38c-7.82,1.56-15.05-1.28-18.87-7.41A17.36,17.36,0,0,1,39.8,11.55,16.63,16.63,0,0,1,58,6.48c6,2.13,8.81,6.88,10.07,12.78.31,1.46.37,3,.58,4.72H44.16a6.79,6.79,0,0,0,4.29,6.94c5.39,2.23,10.14.89,14.29-3.22ZM44.37,18H60.63a7.77,7.77,0,0,0-8-6.28C48.48,11.8,45,14.39,44.37,18Z"/><path class="cls-1" d="M72.92,37.92V6.42h7.65l.1,2.22c2.56-1,5.12-2.43,7.8-2.73A20,20,0,0,1,96.66,7a6.94,6.94,0,0,1,4.73,6.67c.19,8,.06,16,.06,24.12H94.06V32.19c0-4.33,0-8.65,0-13,0-3.33-1.21-5.32-3.7-6.19-2.85-1-6.33-.17-7.92,2.37a11.65,11.65,0,0,0-1.72,5.4c-.23,5-.08,9.94-.08,14.91v2.21Z"/><path class="cls-1" d="M33,14.49l-6.5,3.12c-4.77-6.72-11.67-5.56-15-2.39a9.93,9.93,0,0,0,.16,14.3c4.7,4.26,10.26,3,15.36-3.6l6.15,2.92c-1.37,6-8.55,10.25-16.66,9.9C8,38.37,1.24,32.5.17,24.5A16.33,16.33,0,0,1,11.25,6.37C20.05,3.52,28.79,6.71,33,14.49Z"/><path class="cls-1" d="M117,6.93h6.84v5.45H117.1v8.11c0,2.59,0,5.18,0,7.77,0,3.42,1.06,4.33,4.5,4.1.71,0,1.42-.15,2.41-.25v6.47c-3,.09-5.85.36-8.67.19-3.47-.22-5.65-2.3-5.81-5.8-.28-5.82-.19-11.66-.25-17.49,0-1,0-2,0-3.19h-4.38V6.77h4.36V0H117Z"/><path class="cls-1" d="M147.09,13.15c-1.05.19-2,.3-2.89.52-4.4,1-6.82,4-6.87,8.46-.06,5.18,0,10.36,0,15.73h-7.7V6.46h7.6c.08,1.08.16,2.19.28,3.84,2.49-3.51,5.71-4.67,9.59-4.69Z"/><path class="cls-1" d="M196.5,37.53h-9.6V28h9.6Z"/></g></g></svg>