<svg xmlns="http://www.w3.org/2000/svg" viewBox="0 0 1366 768"><defs><style>.cls-1{fill:#f8f4e9;}.cls-2,.cls-3,.cls-4{fill:#ffa600;}.cls-2{opacity:0.1;}.cls-3{opacity:0.2;}.cls-4{opacity:0.3;}.cls-10,.cls-11,.cls-12,.cls-13,.cls-14,.cls-15,.cls-16,.cls-17,.cls-18,.cls-19,.cls-20,.cls-21,.cls-22,.cls-23,.cls-24,.cls-25,.cls-26,.cls-27,.cls-28,.cls-29,.cls-30,.cls-31,.cls-32,.cls-33,.cls-34,.cls-35,.cls-36,.cls-37,.cls-38,.cls-39,.cls-40,.cls-41,.cls-42,.cls-5,.cls-6,.cls-7,.cls-8,.cls-9{fill:none;stroke-linecap:round;}.cls-5{stroke:#669fb8;}.cls-6{stroke:#6da3b8;}.cls-18,.cls-19,.cls-20,.cls-21,.cls-22,.cls-35,.cls-6{stroke-opacity:1;}.cls-7{stroke:#90a2a7;}.cls-8{stroke:#81b0b9;}.cls-9{stroke:#7aacb9;}.cls-10{stroke:#8eb8ba;}.cls-11{stroke:#74a8b9;}.cls-12{stroke:#609bb8;}.cls-13{stroke:#87b4b9;}.cls-14{stroke:#94bcba;}.cls-15{stroke:#8b8592;}.cls-16{stroke:#c8dcbc;}.cls-17{stroke:#cfe1bc;}.cls-18{stroke:#a7c8bb;}.cls-19{stroke:#d1cbaa;}.cls-20,.cls-37{stroke:#c2d8bc;}.cls-21{stroke:#cfe0bc;}.cls-22{stroke:#d5e5bc;}.cls-23{stroke:#e5d7ab;}.cls-24{stroke:#bbd4bc;}.cls-25{stroke:#e3edbd;}.cls-26{stroke:#dab695;}.cls-27{stroke:#d6e5bc;}.cls-28{stroke:#c2d9bc;}.cls-29,.cls-35{stroke:#b5d0bb;}.cls-30{stroke:#c9ddbc;}.cls-31{stroke:#aeccbb;}.cls-32{stroke:#dce9bd;}.cls-33{stroke:#f6f9be;}.cls-34{stroke:#a8c8bb;}.cls-36{stroke:#bbd4bb;}.cls-38{stroke:#9ac0ba;}.cls-39{stroke:#e9f1bd;}.cls-40{stroke:#a1c4bb;}.cls-41{stroke:#f0f5be;}.cls-42{stroke:#d6e5bd;}.cls-43{fill:#2c7bb6;stroke:#1e567f;}.cls-43,.cls-54{stroke-width:4.49px;}.cls-44,.cls-54{fill:#a1c4bb;stroke:#708982;}.cls-44{stroke-width:5.31px;}.cls-45{fill:#aeccbb;stroke:#798e82;}.cls-45,.cls-46{stroke-width:4.83px;}.cls-46{fill:#f5ca99;stroke:#ab8d6b;}.cls-47,.cls-49,.cls-56,.cls-60{fill:#d6e5bd;stroke:#95a084;}.cls-47,.cls-51,.cls-58{stroke-width:4.77px;}.cls-48,.cls-57{fill:#c9ddbc;stroke:#8c9a83;}.cls-48,.cls-52{stroke-width:4.56px;}.cls-49{stroke-width:5.04px;}.cls-50,.cls-59{fill:#f0f5be;stroke:#a8ab85;}.cls-50,.cls-56,.cls-57{stroke-width:4.97px;}.cls-51{fill:#bcd5bc;stroke:#839583;}.cls-52{fill:#94bcba;stroke:#678382;}.cls-53,.cls-58{fill:#e3edbd;stroke:#9ea584;}.cls-53{stroke-width:4.63px;}.cls-55{fill:#fdfebe;stroke:#b1b185;stroke-width:5.17px;}.cls-59{stroke-width:5.38px;}.cls-60{stroke-width:5.24px;}.cls-61{fill:#eb8f6f;stroke:#a4644d;stroke-width:4.7px;}.cls-62,.cls-73{font-size:15px;}.cls-62,.cls-63,.cls-70,.cls-73{fill:#676057;font-family:ChakraPetch-Bold, Chakra Petch;font-weight:700;}.cls-63,.cls-70{font-size:13px;}.cls-64{letter-spacing:-0.03em;}.cls-65{letter-spacing:0em;}.cls-66{letter-spacing:-0.02em;}.cls-67{letter-spacing:0em;}.cls-68,.cls-70{letter-spacing:-0.01em;}.cls-69{letter-spacing:0em;}.cls-71{letter-spacing:0em;}.cls-72,.cls-73{letter-spacing:-0.01em;}.cls-74{letter-spacing:0em;}.cls-75{letter-spacing:-0.03em;}.cls-76{letter-spacing:-0.1em;}.cls-77{letter-spacing:0em;}.cls-78{letter-spacing:-0.02em;}.cls-79{letter-spacing:-0.02em;}</style></defs><g id="Capa_2" data-name="Capa 2"><rect class="cls-1" width="1366" height="768"/></g><g id="Capa_1" data-name="Capa 1"><circle class="cls-2" cx="494.91" cy="289.93" r="241.61"/><circle class="cls-3" cx="1139.29" cy="226.29" r="221.56"/><circle class="cls-4" cx="859.74" cy="548.41" r="204.68"/><g id="edges"><path class="cls-5" d="M856.29,421.75A177.64,177.64,0,0,1,993.91,283.26"/><path class="cls-6" d="M845.19,435.27a184.85,184.85,0,0,1-198.65-49.84"/><path class="cls-7" d="M846.31,425.93a178.64,178.64,0,0,1-68-185.23"/><path class="cls-8" d="M844.58,432.74a79,79,0,0,1-69.09-34.85"/><path class="cls-9" d="M864.32,434a218.32,218.32,0,0,1,160.07,186.12"/><path class="cls-8" d="M847.42,438.72a55.74,55.74,0,0,1-47.34,11.47"/><path class="cls-10" d="M851.63,422a224.32,224.32,0,0,1,79.82-239"/><path class="cls-11" d="M856,441.6a138.26,138.26,0,0,1-66.44,133.29"/><path class="cls-12" d="M862.86,437.33a81.57,81.57,0,0,1,30.72,74.89"/><path class="cls-13" d="M861.17,424.08a284.53,284.53,0,0,1,316.5-73.4"/><path class="cls-7" d="M845.54,436.07a391.65,391.65,0,0,1-446.22-78.74"/><path class="cls-5" d="M776.35,495.63a91,91,0,0,1,68.28-62.45"/><path class="cls-14" d="M844.65,430A325.91,325.91,0,0,1,582.22,164.11"/><path class="cls-10" d="M1174.68,435.15a274.24,274.24,0,0,1-311.91,2.3"/><path class="cls-8" d="M690.12,517.63a162.14,162.14,0,0,1,154.44-86.95"/><path class="cls-9" d="M853.43,441.63A139.83,139.83,0,0,1,754.59,555"/><path class="cls-13" d="M848.33,439.53a126,126,0,0,1-128.1,39.65"/><path class="cls-10" d="M859.74,423a359.74,359.74,0,0,1,380.7-162.29"/><path class="cls-8" d="M850.62,440.89a138.11,138.11,0,0,1-124.74,79.22"/><path class="cls-15" d="M864.44,433.5A370.56,370.56,0,0,1,1158,745"/><path class="cls-16" d="M994.8,276.28a102.72,102.72,0,0,1-54.71-88.61"/><path class="cls-17" d="M994.39,285.1A370.12,370.12,0,0,1,587.47,161.89"/><path class="cls-16" d="M1242.85,271.07a206,206,0,0,1-227.08,16.27"/><path class="cls-18" d="M998.05,290.37a315.42,315.42,0,0,1-348.47,90.76"/><path class="cls-19" d="M401.28,344.29A207.71,207.71,0,0,1,631.44,370"/><path class="cls-20" d="M760.85,393.84a109.29,109.29,0,0,1-113-9.81"/><path class="cls-21" d="M936.56,187A301.43,301.43,0,0,1,650.31,377.63"/><path class="cls-19" d="M779.5,240.94A170.12,170.12,0,0,1,650.11,375.16"/><path class="cls-22" d="M589.33,160.12a193.52,193.52,0,0,1,54,207"/><path class="cls-23" d="M764.74,379.48a132.31,132.31,0,0,1,9.7-140.76"/><path class="cls-23" d="M401.19,344.13a317,317,0,0,1,361,37.42"/><path class="cls-24" d="M775.49,379.43A215.66,215.66,0,0,1,993.94,279"/><path class="cls-25" d="M770.76,378a226.67,226.67,0,0,1,159-198.44"/><path class="cls-26" d="M1035.4,631.76a152.8,152.8,0,0,1,121.76,113.41"/><path class="cls-27" d="M1024.35,620.17a266.4,266.4,0,0,1,153.39-261.29"/><path class="cls-28" d="M1016,634.45a208.5,208.5,0,0,1-228.5-46.64"/><path class="cls-29" d="M1013.07,290.45a291.38,291.38,0,0,1,17.73,331.28"/><path class="cls-30" d="M1015.79,634A242.26,242.26,0,0,1,751,566.19"/><path class="cls-31" d="M1015.13,629.59A143.24,143.24,0,0,1,894.48,532"/><path class="cls-17" d="M780.72,390.07A292.86,292.86,0,0,1,1023.41,620.3"/><path class="cls-32" d="M716.5,467.5a70.48,70.48,0,0,1,61.84-23.15"/><path class="cls-17" d="M791.58,457.75A100,100,0,0,1,753,551.46"/><path class="cls-20" d="M778.26,448.59a137.69,137.69,0,0,1-133.27-62"/><path class="cls-33" d="M590.29,146.54a300.63,300.63,0,0,1,341.59,22.93"/><path class="cls-30" d="M725.71,521.67a74.6,74.6,0,0,1,51.78,48"/><path class="cls-30" d="M696.42,526.79a90.33,90.33,0,0,1,78.85,43.78"/><path class="cls-28" d="M769.57,579.4a35.61,35.61,0,0,1-20.11-12.15"/><path class="cls-34" d="M785.32,570.66a104.56,104.56,0,0,1,96.18-49.61"/><path class="cls-30" d="M774.85,570.8a111.35,111.35,0,0,1,7.59-115.21"/><path class="cls-35" d="M770.18,576.39A205.68,205.68,0,0,1,639.39,388"/><path class="cls-36" d="M1182.9,364.11A283.12,283.12,0,0,1,901.77,523.35"/><path class="cls-29" d="M800.62,447.21a105.94,105.94,0,0,1,87.61,65.4"/><path class="cls-31" d="M751.27,549.44a126.68,126.68,0,0,1,130.84-30.88"/><path class="cls-37" d="M1177,437.5a255.56,255.56,0,0,1-275.69,87.88"/><path class="cls-38" d="M1007.67,292.9A222.18,222.18,0,0,1,900.54,517.27"/><path class="cls-29" d="M694.27,521a172,172,0,0,1,188.87-4.46"/><path class="cls-29" d="M723.92,513.11a147.91,147.91,0,0,1,159.43,3.16"/><path class="cls-37" d="M1248.36,274.86A369.83,369.83,0,0,1,901.83,522.31"/><path class="cls-39" d="M1251.68,275.47A93.32,93.32,0,0,1,1196.89,351"/><path class="cls-37" d="M1017.19,278.59A163.25,163.25,0,0,1,1181.59,346"/><path class="cls-39" d="M1178.27,418.85a61.61,61.61,0,0,1,3-55.65"/><path class="cls-24" d="M767.12,512.76a76.15,76.15,0,0,1-71.25,18.44"/><path class="cls-31" d="M780,513.41a62.38,62.38,0,0,1,5.07,57.12"/><path class="cls-24" d="M771.1,495.75a50.55,50.55,0,0,1,10.27-41.11"/><path class="cls-24" d="M766.8,512.45A51.22,51.22,0,0,1,725.39,523"/><path class="cls-37" d="M764,506.65a58.57,58.57,0,0,1-48-21.78"/><path class="cls-29" d="M774.16,515.43a50.3,50.3,0,0,1-20.68,36.77"/><path class="cls-18" d="M764,503.88A154.78,154.78,0,0,1,641.66,387.82"/><path class="cls-16" d="M1176,436.65A347.35,347.35,0,0,1,783,509.7"/><path class="cls-38" d="M783,501A99.07,99.07,0,0,1,884.05,515.4"/><path class="cls-40" d="M775.72,495.5A268.63,268.63,0,0,1,993.86,283"/><path class="cls-41" d="M1181.29,417.72A149,149,0,0,1,1242.06,270"/><path class="cls-42" d="M693.9,520.58a25,25,0,0,1,8.65-2.53"/><path class="cls-17" d="M696.42,526.91A54.74,54.74,0,0,1,738,548.23"/><path class="cls-17" d="M724.91,524.32a40.16,40.16,0,0,1,17.16,22.38"/><path class="cls-32" d="M716,484.85a36.48,36.48,0,0,1,2.61,23.92"/><path class="cls-32" d="M684.44,516.58A47.76,47.76,0,0,1,701.22,482"/><path class="cls-37" d="M713.84,466a295,295,0,0,1,279.9-185.3"/></g><g id="nodes"><circle class="cls-43" cx="854.57" cy="431.65" r="9.24"/><circle class="cls-44" cx="1005.61" cy="281.21" r="10.93"/><circle class="cls-45" cx="639.5" cy="377.22" r="9.95"/><circle class="cls-46" cx="781.17" cy="230.26" r="9.95"/><circle class="cls-47" cx="770.16" cy="388.66" r="9.81"/><circle class="cls-48" cx="1025.3" cy="630.32" r="9.38"/><circle class="cls-49" cx="789.37" cy="446.7" r="10.37"/><circle class="cls-50" cx="940.45" cy="176.56" r="10.23"/><circle class="cls-51" cx="780.21" cy="580.01" r="9.81"/><circle class="cls-52" cx="891.63" cy="522.23" r="9.38"/><circle class="cls-53" cx="1187.22" cy="354.7" r="9.52"/><circle class="cls-46" cx="391.83" cy="349.53" r="9.95"/><circle class="cls-54" cx="773.95" cy="505.39" r="9.24"/><circle class="cls-55" cx="580.48" cy="152.67" r="10.65"/><circle class="cls-50" cx="1183.64" cy="428.58" r="10.23"/><circle class="cls-56" cx="685.33" cy="527.66" r="10.23"/><circle class="cls-57" cx="743.81" cy="557.68" r="10.23"/><circle class="cls-58" cx="710.06" cy="475.99" r="9.81"/><circle class="cls-59" cx="1252.16" cy="263.45" r="11.07"/><circle class="cls-60" cx="714.17" cy="519.62" r="10.79"/><circle class="cls-61" cx="1159.35" cy="755.44" r="9.67"/></g><text class="cls-62" transform="translate(871.59 431.65)">Olivia Rodrigo</text><text class="cls-63" transform="translate(1222.29 245.84)">girl in <tspan class="cls-64" x="38.39" y="0">r</tspan><tspan x="43.38" y="0">ed</tspan></text><text class="cls-63" transform="translate(895.13 160.12)">G<tspan class="cls-64" x="8.79" y="0">r</tspan><tspan x="13.78" y="0">acie </tspan><tspan class="cls-65" x="43.16" y="0">A</tspan><tspan x="51.49" y="0">b</tspan><tspan class="cls-66" x="59.29" y="0">r</tspan><tspan class="cls-67" x="64.28" y="0">ams</tspan></text><text class="cls-63" transform="translate(533.68 186.78)">Joshua Bassett</text><text class="cls-63" transform="translate(726.62 372.18)">Madison Beer</text><text class="cls-63" transform="translate(750.78 428.11)">Harry <tspan class="cls-68" x="38.43" y="0">S</tspan><tspan class="cls-65" x="46.58" y="0">t</tspan><tspan x="51.9" y="0">yles</tspan></text><text class="cls-63" transform="translate(667.8 457.75)">One Di<tspan class="cls-66" x="40.39" y="0">r</tspan><tspan x="45.38" y="0">ection</tspan></text><text class="cls-63" transform="translate(612.7 551.46)"><tspan class="cls-65">S</tspan><tspan x="8.22" y="0">elena Gom</tspan><tspan class="cls-65" x="73.16" y="0">e</tspan><tspan class="cls-69" x="80.68" y="0">z</tspan></text><text class="cls-63" transform="translate(633.24 503.8)">Camila Cabello</text><text class="cls-63" transform="translate(1134.7 337.93)">Melanie Martin<tspan class="cls-65" x="91.04" y="0">e</tspan><tspan x="98.55" y="0">z</tspan></text><text class="cls-70" transform="translate(1145.25 412.13)">L<tspan class="cls-67" x="7.16" y="0">ana del Rey</tspan></text><text class="cls-62" transform="translate(853.39 546.7)">Billie Eilish</text><text class="cls-62" transform="translate(994.98 653.79)">D<tspan class="cls-71" x="10.32" y="0">o</tspan><tspan x="19.13" y="0">ja C</tspan><tspan class="cls-72" x="45.96" y="0">a</tspan><tspan x="54.43" y="0">t</tspan></text><text class="cls-73" transform="translate(1165.92 742.18)">S<tspan class="cls-74" x="9.4" y="0">ZA</tspan></text><text class="cls-62" transform="translate(729.36 607.4)">Ariana G<tspan class="cls-75" x="60.25" y="0">r</tspan><tspan x="66.01" y="0">ande</tspan></text><text class="cls-62" transform="translate(712.79 543.33)">Dua Lipa</text><text class="cls-62" transform="translate(964.31 258.09)">Conan G<tspan class="cls-75" x="59.31" y="0">r</tspan><tspan x="65.07" y="0">ay</tspan></text><text class="cls-62" transform="translate(733.54 488.94)"><tspan class="cls-76">T</tspan><tspan x="7.26" y="0">aylor </tspan><tspan class="cls-71" x="47.8" y="0">S</tspan><tspan class="cls-77" x="57.28" y="0">wift</tspan></text><text class="cls-62" transform="translate(573.26 357.33)"><tspan class="cls-71">S</tspan><tspan x="9.48" y="0">abrina Carpe</tspan><tspan class="cls-72" x="101.26" y="0">n</tspan><tspan class="cls-78" x="109.99" y="0">t</tspan><tspan class="cls-77" x="115.98" y="0">er</tspan></text><text class="cls-62" transform="translate(266.33 352.5)">D<tspan class="cls-72" x="10.32" y="0">ov</tspan><tspan x="26.55" y="0">e Came</tspan><tspan class="cls-75" x="79.48" y="0">r</tspan><tspan x="85.24" y="0">on</tspan></text><text class="cls-62" transform="translate(740.16 210.56)"><tspan class="cls-76">T</tspan><tspan class="cls-72" x="7.26" y="0">a</tspan><tspan class="cls-79" x="15.74" y="0">t</tspan><tspan x="21.72" y="0">e McRae</tspan></text></g></svg>