<svg id="Capa_1" data-name="Capa 1" xmlns="http://www.w3.org/2000/svg" viewBox="0 0 850 850"><defs><style>.cls-1{fill:#f8f4e9;}.cls-2,.cls-3{fill:none;}.cls-2,.cls-5,.cls-6,.cls-7,.cls-8,.cls-9{stroke:#ffa600;}.cls-2,.cls-3,.cls-5,.cls-6,.cls-7,.cls-8,.cls-9{stroke-miterlimit:10;}.cls-2{stroke-width:2px;}.cls-3{stroke:#676057;}.cls-4{fill:#ffa600;}.cls-5{fill:#b6cc87;}.cls-6{fill:#a09c6f;}.cls-7{fill:#ff9b4d;}.cls-8{fill:#b2c7fb;}.cls-9{fill:#73bbee;}.cls-10{font-size:47.17px;}.cls-10,.cls-11,.cls-13,.cls-17,.cls-25,.cls-27{fill:#056700;font-family:ChakraPetch-Bold, Chakra Petch;font-weight:700;}.cls-11,.cls-13,.cls-17,.cls-25,.cls-27{isolation:isolate;}.cls-11{font-size:19.27px;}.cls-12{letter-spacing:-0.03em;}.cls-13,.cls-17,.cls-25,.cls-27{font-size:21.55px;}.cls-14,.cls-25{letter-spacing:-0.1em;}.cls-15{letter-spacing:0em;}.cls-16,.cls-17{letter-spacing:-0.01em;}.cls-18{letter-spacing:-0.01em;}.cls-19{letter-spacing:-0.02em;}.cls-20{letter-spacing:-0.02em;}.cls-21{letter-spacing:0em;}.cls-22{letter-spacing:0em;}.cls-23{letter-spacing:0em;}.cls-24{letter-spacing:-0.03em;}.cls-26{letter-spacing:-0.01em;}.cls-27{letter-spacing:-0.01em;}</style></defs><rect class="cls-1" x="0.33" y="0.49" width="850" height="850"/><g id="edges"><path class="cls-2" d="M497.13,301.52a300.47,300.47,0,0,1,72.4,172.38"/><path class="cls-2" d="M336.67,222.54a261.49,261.49,0,0,1-56.86-65.79"/><path class="cls-2" d="M489.86,202c56.66-30.73,119.39-34.18,177.7-9.77"/><path class="cls-2" d="M402.37,331.48C356.77,449,259.81,540,138.37,579.43"/><path class="cls-2" d="M353.49,301.52c-71.22,48.44-154.91,63-234.57,40.71"/><path class="cls-2" d="M424.19,336.31c-12,140.56-86.7,267.33-202.08,342.91"/><path class="cls-2" d="M507.22,271.22C623.6,334.38,705.32,450,728.54,584.41"/><path class="cls-2" d="M336.67,274.56c-52.39,1.64-104-15.39-148.43-48.95"/><path class="cls-2" d="M418,336.31c-10,71.36-37.34,136.63-78,186.09"/><path class="cls-2" d="M487.81,310.61c89.78,118.85,118,274,75.81,417.47"/><path class="cls-2" d="M471.62,182.22a254,254,0,0,1,133-48.63"/><path class="cls-2" d="M453.07,122.46c1.17,15.75,1.92,31.67,2.22,47.66"/><path class="cls-2" d="M498.07,216.91c81.49-14.59,164.92,6.1,233,57.76"/><path class="cls-2" d="M734.56,512c-113.54-14.53-214.91-80-276.7-178.61"/><path class="cls-2" d="M277.89,723C231.52,578.6,265.45,423.36,369.34,304.6"/><path class="cls-2" d="M385.09,327C320,408.9,224.09,459.38,120.7,466.16"/><path class="cls-2" d="M497.13,292.67A452.18,452.18,0,0,1,658.72,663.3"/><path class="cls-2" d="M508.58,239.93c96.48,5.73,186.29,52.6,247.83,129.33"/><path class="cls-2" d="M472.44,326C531,464.54,523.39,624.21,452,755.83"/><path class="cls-2" d="M448.63,164.48A223.08,223.08,0,0,1,523.9,98.13"/><path class="cls-3" d="M621.26,539.39a195.86,195.86,0,0,1,85.11,49.08"/><path class="cls-3" d="M575.83,478A274.11,274.11,0,0,1,719,304.6"/><path class="cls-3" d="M764.92,425.78c-32.33,52-82.31,89.89-140.25,106.21"/><path class="cls-3" d="M510.11,519.34a467.67,467.67,0,0,1-250-361.13"/><path class="cls-3" d="M599.66,149.9c-92.35,47.54-199.23,42.61-287.85-13.29"/><path class="cls-3" d="M87.18,551.71C56.09,398.71,109,241.14,227.39,134.12"/><path class="cls-3" d="M693.43,616c-214.19-63.19-375.8-241.25-419.36-462.07"/><path class="cls-3" d="M670.28,215C545,258.05,407.5,231.19,305.35,143.7"/><path class="cls-3" d="M719,294.21c-157.23,28.13-318.11-26.08-423.49-142.69"/><path class="cls-3" d="M118.63,556.75c100.52-217.31,315.2-356.51,551.65-357.7"/><path class="cls-3" d="M622.81,167.73C560,387,378.08,550.6,154.9,588.47"/><path class="cls-3" d="M142.43,559.68C251.09,484,391.58,464.53,518,507.77"/><path class="cls-3" d="M147,577.45C321.11,466,534.42,475.88,700.29,603.14"/><path class="cls-3" d="M92.75,287.22c94.52-139.81,256.77-216.47,423.38-200"/><path class="cls-3" d="M120.7,326c201.6,45.87,361.92,201.64,416.82,405"/><path class="cls-3" d="M78.43,280.41a203.63,203.63,0,0,1,24.36-48.11"/><path class="cls-3" d="M508.07,550.1C348.9,563.38,194,493.49,96.94,364.58"/><path class="cls-3" d="M92.67,374.73A265,265,0,0,1,89.59,422"/><path class="cls-3" d="M118.92,338.78c62.26,28.35,111.85,80.71,138.63,146.34"/><path class="cls-3" d="M75.9,571.16C40.4,509.75,32.7,437.92,54.47,371.31"/><path class="cls-3" d="M615.13,723.45c-122.91,79-271.59,77.09-393-5.08"/><path class="cls-3" d="M138.37,677.78C91.06,634.39,61.37,573.2,55.51,507"/><path class="cls-3" d="M160.93,660.16c-75.76-171-48.49-366.76,71.57-513.87"/><path class="cls-3" d="M773.54,316.5c35.3,92,29.5,197.69-15.58,283.94"/><path class="cls-3" d="M379.9,768.14C210.6,654,116.71,455.85,135.12,251.48"/><path class="cls-3" d="M260.15,735.22C129,607.84,77.66,422,125.4,247.73"/><path class="cls-3" d="M157,247.73a263,263,0,0,1-60.1,187.92"/><path class="cls-3" d="M185.69,228.67A339.61,339.61,0,0,1,291.2,485.12"/><path class="cls-3" d="M181.41,235.16c76.83,127.65,86.53,288,25.73,425"/><path class="cls-3" d="M162.71,158.21a226.89,226.89,0,0,1,46-41.4"/><path class="cls-3" d="M507.22,762.8c-86.94-22-160.53-83-201.62-167.15"/><path class="cls-3" d="M186.38,653.22A186.89,186.89,0,0,1,230,579.43"/><path class="cls-3" d="M120.08,456.41c42.16.3,83.27,19.08,117.86,53.85"/><path class="cls-3" d="M752.56,532a447.75,447.75,0,0,1-426.07,42.22"/><path class="cls-3" d="M516.81,571.16A306,306,0,0,1,334,576.08"/><path class="cls-3" d="M263.9,730.93a280.42,280.42,0,0,1-11.33-135.28"/><path class="cls-3" d="M385.52,765.86A267,267,0,0,1,282.61,600.44"/><path class="cls-3" d="M752.67,425.78A456.65,456.65,0,0,1,334,562.48"/><path class="cls-3" d="M780.7,435.65c-6.13,131.59-80.34,250.69-196.2,314.89"/><path class="cls-3" d="M591,588.47c10.94,49.14,3.49,100.17-21.18,145"/><path class="cls-3" d="M766.62,546.29c-23,95.22-89,173.49-177.7,210.72"/><path class="cls-3" d="M446,123.48c77.87,209,30.23,442.32-124,607.45"/><path class="cls-3" d="M388.9,118.71a279.07,279.07,0,0,1-190.83,85.94"/><path class="cls-3" d="M435.14,129.92c33.7,206.53-52.46,414.28-225,542.49"/><path class="cls-3" d="M459.34,116.65c111.94,198.83,109.4,445.55-6.62,641.84"/><path class="cls-3" d="M469.43,101C633.23,239.55,708.34,456.86,665.2,667.37"/><path class="cls-3" d="M418,129.92C379.49,280.4,266.76,401.05,118.8,450.17"/><path class="cls-3" d="M380.34,105.64a204.68,204.68,0,0,1-61.85,15.8"/><path class="cls-3" d="M732.58,500.27C574,440.35,458.23,299.52,428.19,129.92"/><path class="cls-3" d="M441.36,126.41C466.18,268.2,426.61,414.23,334.9,519.34"/><path class="cls-3" d="M463.3,107.82C563,206.66,607.78,346.06,583.53,482.46"/><path class="cls-3" d="M757.84,473.9c-2.18-13.37-.29-26.81,5.62-39.95"/><path class="cls-3" d="M335.6,755.83a325.17,325.17,0,0,1,50.94,5.31"/><path class="cls-3" d="M255.56,762.59C156.35,713.22,85.49,618.53,64.33,507"/><path class="cls-3" d="M375.81,786.54c-139.49-34-252.66-140.36-299.91-281.89"/><path class="cls-3" d="M632.15,744.84c-46.71,39.28-108.22,60.46-171.62,59.09"/><path class="cls-3" d="M326.49,737.52c80.44-63.54,184-81.84,278.93-49.29"/><path class="cls-3" d="M619.74,682.46a196.06,196.06,0,0,1-49.9-86.81"/><circle class="cls-4" cx="420.96" cy="250.09" r="93.33"/><circle class="cls-5" cx="566.49" cy="536.68" r="63.76"/><circle class="cls-6" cx="264.32" cy="105.64" r="60.47"/><circle class="cls-6" cx="699.88" cy="201.95" r="37.47"/><circle class="cls-6" cx="100.28" cy="595.03" r="50.61"/><circle class="cls-7" cx="75.9" cy="325.97" r="53.9"/><circle class="cls-6" cx="180.52" cy="698.94" r="50.61"/><circle class="cls-6" cx="729.96" cy="616" r="44.04"/><circle class="cls-8" cx="144.22" cy="199.3" r="57.18"/><circle class="cls-5" cx="280.48" cy="543.27" r="67.04"/><circle class="cls-6" cx="546.84" cy="768.14" r="47.32"/><circle class="cls-6" cx="628.53" cy="135.59" r="37.47" transform="translate(394.01 734.28) rotate(-80.78)"/><circle class="cls-6" cx="420.96" cy="69.84" r="63.76"/><circle class="cls-6" cx="752.56" cy="288.92" r="40.75"/><circle class="cls-6" cx="772.58" cy="509.84" r="44.04"/><circle class="cls-6" cx="292.66" cy="767.23" r="50.61"/><circle class="cls-9" cx="62.13" cy="465" r="53.9"/><circle class="cls-6" cx="652.97" cy="706.25" r="47.32"/><circle class="cls-6" cx="779.78" cy="395.67" r="44.04"/><circle class="cls-6" cx="421.81" cy="790.83" r="50.61"/><circle class="cls-6" cx="546.04" cy="92.23" r="34.18"/><text class="cls-10" transform="translate(274.07 271.22)">Olivia Rodrigo</text><text class="cls-11" transform="translate(507.16 545.71) scale(1.12 1)">Conan G<tspan class="cls-12" x="76.19" y="0">r</tspan><tspan x="83.58" y="0">ay</tspan></text><text class="cls-13" transform="translate(222.66 551.71)">Billie Eilish</text><text class="cls-13" transform="translate(360.25 69.84)"><tspan class="cls-14">T</tspan><tspan class="cls-15" x="10.43" y="0">aylor </tspan><tspan class="cls-16" x="68.68" y="0">S</tspan><tspan x="82.3" y="0">wift</tspan></text><text class="cls-17" transform="translate(170.32 110.65)">S<tspan class="cls-15" x="13.62" y="0">abrina Carpe</tspan><tspan class="cls-18" x="145.49" y="0">n</tspan><tspan class="cls-19" x="158.03" y="0">t</tspan><tspan class="cls-15" x="166.63" y="0">er</tspan></text><text class="cls-13" transform="translate(65.6 201.95)">Ariana G<tspan class="cls-20" x="86.57" y="0">r</tspan><tspan x="94.84" y="0">ande</tspan></text><text class="cls-13" transform="translate(32.33 331.48)">D<tspan class="cls-21" x="14.83" y="0">o</tspan><tspan class="cls-22" x="27.48" y="0">ja C</tspan><tspan class="cls-18" x="66.03" y="0">a</tspan><tspan x="78.21" y="0">t</tspan></text><text class="cls-13" transform="translate(14.54 472.93)">Dua Lipa</text><text class="cls-13" transform="translate(32.89 603.14)">Madison Beer</text><text class="cls-13" transform="translate(114.73 706.25)">Harry <tspan class="cls-18" x="63.7" y="0">S</tspan><tspan class="cls-16" x="77.22" y="0">t</tspan><tspan class="cls-15" x="86.03" y="0">yles</tspan></text><text class="cls-13" transform="translate(219.11 774.41)"><tspan class="cls-16">S</tspan><tspan x="13.62" y="0">elena Gom</tspan><tspan class="cls-23" x="121.29" y="0">e</tspan><tspan x="133.74" y="0">z</tspan></text><text class="cls-13" transform="translate(342.59 799.08)">Camila Cabello</text><text class="cls-13" transform="translate(465.26 774.41)">Melanie Martin<tspan class="cls-23" x="150.92" y="0">e</tspan><tspan x="163.38" y="0">z</tspan></text><text class="cls-13" transform="translate(582.91 716.62)">One Di<tspan class="cls-20" x="66.96" y="0">r</tspan><tspan x="75.23" y="0">ection</tspan></text><text class="cls-13" transform="translate(660.03 626.41)">G<tspan class="cls-24" x="14.57" y="0">r</tspan><tspan class="cls-15" x="22.84" y="0">acie </tspan><tspan class="cls-23" x="71.55" y="0">A</tspan><tspan x="85.36" y="0">b</tspan><tspan class="cls-24" x="98.29" y="0">r</tspan><tspan class="cls-15" x="106.57" y="0">ams</tspan></text><text class="cls-13" transform="translate(705.54 519.34)"><tspan class="cls-18">L</tspan><tspan x="11.87" y="0">ana Del Rey</tspan></text><text class="cls-13" transform="translate(732.33 397.86)">girl in <tspan class="cls-20" x="63.64" y="0">r</tspan><tspan x="71.91" y="0">ed</tspan></text><text class="cls-13" transform="translate(676.49 290.87)">Joshua Bassett</text><text class="cls-25" transform="translate(635.58 210.55)">T<tspan class="cls-26" x="10.43" y="0">a</tspan><tspan class="cls-19" x="22.61" y="0">t</tspan><tspan class="cls-15" x="31.21" y="0">e McRae</tspan></text><text class="cls-13" transform="translate(556.23 137.92)">D<tspan class="cls-26" x="14.83" y="0">ov</tspan><tspan x="38.15" y="0">e Came</tspan><tspan class="cls-20" x="114.2" y="0">r</tspan><tspan x="122.47" y="0">on</tspan></text><text class="cls-27" transform="translate(526.75 98.13)">S<tspan class="cls-15" x="13.51" y="0">ZA</tspan></text></g></svg>