<svg id="Capa_1" data-name="Capa 1" xmlns="http://www.w3.org/2000/svg" viewBox="0 0 1100 40"><defs><style>.cls-1{fill:#f8f4e9;}.cls-2{fill:#056700;}</style></defs><rect class="cls-1" y="0.28" width="1100" height="40"/><path class="cls-2" d="M1067.66,39.75c-6.85-.09-12.45-2.69-15.66-8.89-3.11-6-2.84-12.23,1.27-17.75,4.53-6.06,11-7.63,18.12-6.36,6.48,1.14,11.11,4.84,12.94,11.27,1.89,6.67.61,12.73-4.72,17.53A17.07,17.07,0,0,1,1067.66,39.75Zm0-26.25a9.31,9.31,0,0,0-9.34,9.54c0,5.51,3.94,9.63,9.2,9.66a9.48,9.48,0,0,0,9.39-9.32C1076.89,17.72,1073,13.53,1067.67,13.5Z"/><path class="cls-2" d="M970.19,32a17.41,17.41,0,0,1-11.63,7.39C950.73,41,943.5,38.12,939.68,32A17.34,17.34,0,0,1,941,12.32a16.62,16.62,0,0,1,18.2-5.06c6,2.13,8.81,6.88,10.07,12.77.31,1.47.37,3,.58,4.73h-24.5a6.78,6.78,0,0,0,4.29,6.93c5.4,2.23,10.14.89,14.3-3.22ZM945.58,18.75h16.26a7.76,7.76,0,0,0-8-6.27C949.7,12.58,946.23,15.17,945.58,18.75Z"/><path class="cls-2" d="M974.13,38.7V7.2h7.65l.1,2.21c2.56-.94,5.12-2.43,7.81-2.73a19.93,19.93,0,0,1,8.18,1.07,6.93,6.93,0,0,1,4.73,6.67c.19,8,.06,16,.06,24.11h-7.39V33c0-4.32,0-8.64,0-13,0-3.33-1.21-5.31-3.7-6.18-2.85-1-6.33-.17-7.92,2.36a11.84,11.84,0,0,0-1.72,5.41c-.23,5-.08,9.94-.08,14.91V38.7Z"/><path class="cls-2" d="M934.17,15.26l-6.49,3.12c-4.78-6.72-11.68-5.56-15-2.38a9.93,9.93,0,0,0,.16,14.3c4.7,4.26,10.26,3,15.36-3.6l6.15,2.92c-1.36,6-8.55,10.24-16.66,9.89-8.51-.37-15.24-6.24-16.32-14.23A16.32,16.32,0,0,1,912.46,7.15C921.26,4.29,930,7.48,934.17,15.26Z"/><path class="cls-2" d="M1018.24,7.71h6.83v5.45h-6.76v8.1c0,2.59,0,5.19,0,7.78,0,3.41,1.06,4.33,4.5,4.09.71-.05,1.42-.14,2.41-.24v6.47c-3,.08-5.85.36-8.67.18-3.47-.22-5.65-2.29-5.81-5.8-.28-5.82-.19-11.65-.24-17.48,0-1,0-2,0-3.2h-4.38V7.54h4.37V.78h7.75Z"/><path class="cls-2" d="M1048.3,13.93c-1,.18-2,.3-2.89.51-4.4,1-6.82,4-6.87,8.46-.06,5.19,0,10.37,0,15.73h-7.7V7.24h7.61c.07,1.07.15,2.18.27,3.84,2.49-3.51,5.71-4.67,9.59-4.69Z"/><path class="cls-2" d="M1097.71,38.31h-9.6V28.77h9.6Z"/><path class="cls-2" d="M4.89,32.31a.16.16,0,0,1-.18-.18V15.65a.16.16,0,0,1,.18-.18h9.05a.16.16,0,0,1,.18.18v.9a.16.16,0,0,1-.18.18H6.07V23.1h7.28a.16.16,0,0,1,.18.18v.85a.16.16,0,0,1-.18.18H6.07v6.74h7.87a.16.16,0,0,1,.18.18v.9a.16.16,0,0,1-.18.18Z"/><path class="cls-2" d="M23.27,32.62a6.36,6.36,0,0,1-4.34-1.22,4.3,4.3,0,0,1-1.26-3.49c0-.19.08-.28.2-.28h1c.14,0,.21.09.21.26a3.23,3.23,0,0,0,1,2.68,5.17,5.17,0,0,0,3.29.84,5.82,5.82,0,0,0,3.3-.73,2.64,2.64,0,0,0,1-2.33,3.41,3.41,0,0,0-.31-1.56,2.73,2.73,0,0,0-1-1,10.52,10.52,0,0,0-1.75-.87l-3.37-1.44a8.68,8.68,0,0,1-1.95-1.09A3.37,3.37,0,0,1,18.3,21,4.63,4.63,0,0,1,18,19.17a3.49,3.49,0,0,1,1.41-3,6.59,6.59,0,0,1,3.91-1,7.81,7.81,0,0,1,3.06.53,4,4,0,0,1,1.86,1.53,4.21,4.21,0,0,1,.56,2.5q0,.3-.18.3h-1a.14.14,0,0,1-.12-.06.35.35,0,0,1-.06-.24,2.84,2.84,0,0,0-1-2.49,5,5,0,0,0-3.19-.86,5.25,5.25,0,0,0-2.87.66,2.32,2.32,0,0,0-1,2,3.15,3.15,0,0,0,.27,1.4,2.59,2.59,0,0,0,.87,1,10.73,10.73,0,0,0,1.64.89l3.37,1.44a11.66,11.66,0,0,1,2.1,1.14,3.42,3.42,0,0,1,1.15,1.38,5.06,5.06,0,0,1,.34,2,3.85,3.85,0,0,1-1.37,3.21A7.24,7.24,0,0,1,23.27,32.62Z"/><path class="cls-2" d="M33.22,32.31a.16.16,0,0,1-.18-.18V15.65a.16.16,0,0,1,.18-.18h4.12a7.14,7.14,0,0,1,4.54,1.24,4.67,4.67,0,0,1,1.55,3.85,4.64,4.64,0,0,1-1.51,3.75,7,7,0,0,1-4.63,1.29H34.41v6.53c0,.12,0,.18-.16.18Zm1.19-7.89h2.85a5.63,5.63,0,0,0,3.69-1,3.57,3.57,0,0,0,1.12-2.87,3.57,3.57,0,0,0-1.18-3,5.74,5.74,0,0,0-3.58-.93h-2.9Z"/><path class="cls-2" d="M47.29,32.31a.16.16,0,0,1-.18-.18V15.65a.16.16,0,0,1,.18-.18h9.05a.16.16,0,0,1,.18.18v.9a.16.16,0,0,1-.18.18H48.47V23.1h7.28a.16.16,0,0,1,.18.18v.85a.16.16,0,0,1-.18.18H48.47v6.74h7.87a.16.16,0,0,1,.18.18v.9a.16.16,0,0,1-.18.18Z"/><path class="cls-2" d="M66.55,32.62A6.37,6.37,0,0,1,62,31.1a5.64,5.64,0,0,1-1.58-4.29V21A5.64,5.64,0,0,1,62,16.68a6.38,6.38,0,0,1,4.6-1.52,8.25,8.25,0,0,1,3.4.65,4.67,4.67,0,0,1,2.16,1.89,4.84,4.84,0,0,1,.54,3,1,1,0,0,1-.07.15.14.14,0,0,1-.14.08h-1q-.21,0-.15-.18a3.76,3.76,0,0,0-1.15-3.23,5.24,5.24,0,0,0-3.56-1.12A5.06,5.06,0,0,0,63,17.58,4.41,4.41,0,0,0,61.74,21v5.84A4.43,4.43,0,0,0,63,30.2a5.06,5.06,0,0,0,3.6,1.18,5.16,5.16,0,0,0,3.57-1.1A3.87,3.87,0,0,0,71.31,27q-.06-.18.15-.18h1c.11,0,.17.08.21.23a5.15,5.15,0,0,1-.62,3A4.8,4.8,0,0,1,69.93,32,7.72,7.72,0,0,1,66.55,32.62Z"/><path class="cls-2" d="M77.19,32.31a.16.16,0,0,1-.18-.18V15.65a.16.16,0,0,1,.18-.18h1c.11,0,.16.06.16.18V32.13c0,.12,0,.18-.16.18Z"/><path class="cls-2" d="M81.13,32.31c-.14,0-.19-.06-.16-.18L87,15.6a.21.21,0,0,1,.21-.13h1.44a.21.21,0,0,1,.21.13l6,16.53q.06.18-.15.18H93.57a.19.19,0,0,1-.2-.13L88.82,19.45c-.16-.46-.31-.92-.47-1.37s-.31-.92-.49-1.38h0c-.15.45-.31.9-.46,1.36s-.32.93-.49,1.39l-4.5,12.73a.22.22,0,0,1-.23.13Zm2.47-4.4L84,26.7h7.79l.36,1.21Z"/><path class="cls-2" d="M97.58,32.31a.16.16,0,0,1-.18-.18V15.65a.16.16,0,0,1,.18-.18h1c.11,0,.16.06.16.18v15.4h7.74a.16.16,0,0,1,.18.18v.9a.16.16,0,0,1-.18.18Z"/><path class="cls-2" d="M109.9,32.31a.16.16,0,0,1-.18-.18V15.65a.16.16,0,0,1,.18-.18h1q.15,0,.15.18V32.13q0,.18-.15.18Z"/><path class="cls-2" d="M116.12,32.31a.16.16,0,0,1-.18-.18V15.65a.16.16,0,0,1,.18-.18h4.37q3.84,0,5.74,1.8t1.9,5.5V24.6q0,3.93-1.9,5.82t-5.74,1.89Zm1.19-1.18h3.11a6.5,6.5,0,0,0,4.79-1.57,6.71,6.71,0,0,0,1.56-4.89v-2a6,6,0,0,0-1.56-4.6,6.75,6.75,0,0,0-4.79-1.47h-3.11Z"/><path class="cls-2" d="M129.83,32.31c-.14,0-.19-.06-.16-.18l6-16.53a.19.19,0,0,1,.2-.13h1.44a.21.21,0,0,1,.21.13l6,16.53q.06.18-.15.18h-1.11a.19.19,0,0,1-.2-.13l-4.55-12.73c-.16-.46-.31-.92-.47-1.37s-.31-.92-.48-1.38h0c-.15.45-.31.9-.46,1.36s-.32.93-.49,1.39l-4.5,12.73a.22.22,0,0,1-.23.13Zm2.47-4.4.36-1.21h7.79l.36,1.21Z"/><path class="cls-2" d="M146.29,32.31a.17.17,0,0,1-.19-.18V15.65a.17.17,0,0,1,.19-.18h4.37q3.83,0,5.73,1.8t1.9,5.5V24.6q0,3.93-1.9,5.82t-5.73,1.89Zm1.18-1.18h3.11a6.54,6.54,0,0,0,4.8-1.57,6.75,6.75,0,0,0,1.55-4.89v-2a6.07,6.07,0,0,0-1.55-4.6,6.79,6.79,0,0,0-4.8-1.47h-3.11Z"/><path class="cls-2" d="M168.66,32.31a.16.16,0,0,1-.18-.18V15.65a.16.16,0,0,1,.18-.18h9.05a.16.16,0,0,1,.18.18v.9a.16.16,0,0,1-.18.18h-7.87V23.1h7.27a.16.16,0,0,1,.18.18v.85a.16.16,0,0,1-.18.18h-7.27v6.74h7.87a.16.16,0,0,1,.18.18v.9a.16.16,0,0,1-.18.18Z"/><path class="cls-2" d="M182.57,32.31a.16.16,0,0,1-.18-.18V15.65a.16.16,0,0,1,.18-.18h1.8a.19.19,0,0,1,.2.13l5.63,9.84c.38.67.74,1.31,1.1,1.91s.69,1.18,1,1.75.64,1.12.95,1.67h0V15.65q0-.18.15-.18h1a.16.16,0,0,1,.18.18V32.13a.16.16,0,0,1-.18.18h-1.78a.19.19,0,0,1-.18-.13L187,22.64c-.36-.65-.72-1.29-1.09-1.91l-1.09-1.87L183.77,17h-.05c0,.65,0,1.29,0,1.92s0,1.25,0,1.87V32.13a.16.16,0,0,1-.18.18Z"/><path class="cls-2" d="M209.59,32.31a.21.21,0,0,1-.21-.13l-5.83-16.53c0-.12,0-.18.13-.18h1.1a.21.21,0,0,1,.21.13L209.33,28c.17.5.35,1,.52,1.51s.33,1,.49,1.53h0c.17-.5.34-1,.52-1.49s.33-1,.48-1.47l4.45-12.44a.21.21,0,0,1,.21-.13h1.08c.13,0,.18.06.13.18l-5.89,16.53a.25.25,0,0,1-.23.13Z"/><path class="cls-2" d="M220.34,32.31a.16.16,0,0,1-.18-.18V15.65a.16.16,0,0,1,.18-.18h1q.15,0,.15.18V32.13q0,.18-.15.18Z"/><path class="cls-2" d="M231,32.62a6.36,6.36,0,0,1-4.34-1.22,4.3,4.3,0,0,1-1.26-3.49c0-.19.08-.28.2-.28h1c.14,0,.21.09.21.26a3.23,3.23,0,0,0,1,2.68,5.17,5.17,0,0,0,3.29.84,5.8,5.8,0,0,0,3.3-.73,2.64,2.64,0,0,0,1-2.33,3.41,3.41,0,0,0-.31-1.56,2.73,2.73,0,0,0-1-1,10.52,10.52,0,0,0-1.75-.87l-3.37-1.44a8.68,8.68,0,0,1-2-1.09A3.37,3.37,0,0,1,226.06,21a4.63,4.63,0,0,1-.32-1.84,3.49,3.49,0,0,1,1.41-3,6.59,6.59,0,0,1,3.91-1,7.81,7.81,0,0,1,3.06.53A4,4,0,0,1,236,17.24a4.21,4.21,0,0,1,.56,2.5q0,.3-.18.3h-1a.14.14,0,0,1-.12-.06.35.35,0,0,1-.06-.24,2.84,2.84,0,0,0-1-2.49,5,5,0,0,0-3.19-.86,5.25,5.25,0,0,0-2.87.66,2.32,2.32,0,0,0-1,2,3.15,3.15,0,0,0,.27,1.4,2.59,2.59,0,0,0,.87,1,10.73,10.73,0,0,0,1.64.89l3.37,1.44a11.66,11.66,0,0,1,2.1,1.14,3.34,3.34,0,0,1,1.15,1.38,5,5,0,0,1,.35,2,3.85,3.85,0,0,1-1.38,3.21A7.24,7.24,0,0,1,231,32.62Z"/><path class="cls-2" d="M246.69,32.62a6,6,0,0,1-4.47-1.56,6.23,6.23,0,0,1-1.54-4.59V15.65a.16.16,0,0,1,.18-.18h1c.11,0,.16.06.16.18V26.5a5.11,5.11,0,0,0,1.17,3.65,5.55,5.55,0,0,0,7,0,5.11,5.11,0,0,0,1.17-3.65V15.65q0-.18.15-.18h1a.16.16,0,0,1,.18.18V26.5A6.21,6.21,0,0,1,251.15,31,6,6,0,0,1,246.69,32.62Z"/><path class="cls-2" d="M255.13,32.31c-.14,0-.19-.06-.16-.18l6-16.53a.21.21,0,0,1,.21-.13h1.44a.21.21,0,0,1,.21.13l6,16.53q.06.18-.15.18h-1.11a.19.19,0,0,1-.2-.13l-4.55-12.73c-.16-.46-.31-.92-.47-1.37s-.31-.92-.48-1.38h0c-.16.45-.31.9-.46,1.36s-.32.93-.49,1.39l-4.5,12.73a.22.22,0,0,1-.23.13Zm2.47-4.4L258,26.7h7.79l.36,1.21Z"/><path class="cls-2" d="M271.58,32.31a.16.16,0,0,1-.18-.18V15.65a.16.16,0,0,1,.18-.18h1c.11,0,.16.06.16.18v15.4h7.74a.16.16,0,0,1,.18.18v.9a.16.16,0,0,1-.18.18Z"/><path class="cls-2" d="M283.9,32.31a.16.16,0,0,1-.18-.18V15.65a.16.16,0,0,1,.18-.18h1q.15,0,.15.18V32.13q0,.18-.15.18Z"/><path class="cls-2" d="M288.4,32.31a.16.16,0,0,1-.18-.18v-.05a.46.46,0,0,1,.08-.23l8.43-12.55c.29-.43.58-.86.86-1.29s.57-.85.87-1.28v0c-.49,0-1,0-1.46,0h-7.75a.16.16,0,0,1-.18-.18v-.9a.16.16,0,0,1,.18-.18h11.21a.16.16,0,0,1,.18.18v0a.61.61,0,0,1-.1.26l-8.36,12.36-.91,1.37-.94,1.36v0c.51,0,1,0,1.54,0h8.05a.16.16,0,0,1,.18.18v.9a.16.16,0,0,1-.18.18Z"/><path class="cls-2" d="M301.75,32.31c-.14,0-.19-.06-.16-.18l6-16.53a.21.21,0,0,1,.21-.13h1.44a.19.19,0,0,1,.2.13l6,16.53c0,.12,0,.18-.15.18h-1.11a.19.19,0,0,1-.2-.13l-4.56-12.73c-.15-.46-.3-.92-.46-1.37s-.32-.92-.49-1.38h0c-.16.45-.31.9-.47,1.36s-.31.93-.48,1.39L303,32.18a.23.23,0,0,1-.24.13Zm2.46-4.4.36-1.21h7.8l.36,1.21Z"/><path class="cls-2" d="M323.5,32.62a6.37,6.37,0,0,1-4.59-1.52,5.68,5.68,0,0,1-1.58-4.29V21a5.64,5.64,0,0,1,1.59-4.29,6.41,6.41,0,0,1,4.61-1.52,8.23,8.23,0,0,1,3.39.65,4.67,4.67,0,0,1,2.16,1.89,4.84,4.84,0,0,1,.54,3l-.06.15a.16.16,0,0,1-.15.08h-1q-.21,0-.15-.18a3.76,3.76,0,0,0-1.15-3.23,5.24,5.24,0,0,0-3.56-1.12,5.06,5.06,0,0,0-3.6,1.19A4.41,4.41,0,0,0,318.69,21v5.84A4.43,4.43,0,0,0,320,30.2a5.06,5.06,0,0,0,3.6,1.18,5.16,5.16,0,0,0,3.57-1.1A3.84,3.84,0,0,0,328.26,27q-.06-.18.15-.18h1c.11,0,.17.08.21.23a5.15,5.15,0,0,1-.62,3,4.74,4.74,0,0,1-2.12,1.9A7.72,7.72,0,0,1,323.5,32.62Z"/><path class="cls-2" d="M334.14,32.31a.16.16,0,0,1-.18-.18V15.65a.16.16,0,0,1,.18-.18h1c.11,0,.16.06.16.18V32.13c0,.12-.05.18-.16.18Z"/><path class="cls-2" d="M346,32.62a6.38,6.38,0,0,1-4.62-1.52,5.67,5.67,0,0,1-1.57-4.29V21a5.67,5.67,0,0,1,1.57-4.29,7.8,7.8,0,0,1,9.25,0A5.67,5.67,0,0,1,352.22,21v5.84a5.67,5.67,0,0,1-1.57,4.29A6.41,6.41,0,0,1,346,32.62Zm0-1.24a5,5,0,0,0,3.59-1.18,4.5,4.5,0,0,0,1.25-3.42V21a4.47,4.47,0,0,0-1.25-3.42,6,6,0,0,0-7.17,0A4.47,4.47,0,0,0,341.19,21v5.78a4.5,4.5,0,0,0,1.25,3.42A5,5,0,0,0,346,31.38Zm-.95-17.58a.13.13,0,0,1-.1-.18l1.52-2.7a.22.22,0,0,1,.2-.13h1.16a.09.09,0,0,1,.1.06.15.15,0,0,1,0,.14l-1.75,2.68a.26.26,0,0,1-.23.13Z"/><path class="cls-2" d="M356.88,32.31c-.13,0-.18-.06-.18-.18V15.65c0-.12.05-.18.18-.18h1.8a.19.19,0,0,1,.2.13l5.63,9.84c.38.67.74,1.31,1.1,1.91l1,1.75c.33.56.64,1.12.95,1.67h0V15.65q0-.18.15-.18h1c.13,0,.18.06.18.18V32.13c0,.12-.05.18-.18.18H367a.17.17,0,0,1-.18-.13l-5.48-9.54c-.36-.65-.72-1.29-1.09-1.91l-1.09-1.87L358.08,17H358c0,.65,0,1.29,0,1.92s0,1.25,0,1.87V32.13a.16.16,0,0,1-.18.18Z"/><path class="cls-2" d="M379.94,32.31a.16.16,0,0,1-.18-.18V15.65a.16.16,0,0,1,.18-.18h4.37q3.84,0,5.73,1.8t1.91,5.5V24.6q0,3.93-1.91,5.82t-5.73,1.89Zm1.18-1.18h3.11a6.54,6.54,0,0,0,4.8-1.57c1-1,1.55-2.68,1.55-4.89v-2a6,6,0,0,0-1.55-4.6,6.79,6.79,0,0,0-4.8-1.47h-3.11Z"/><path class="cls-2" d="M396.32,32.31a.16.16,0,0,1-.18-.18V15.65a.16.16,0,0,1,.18-.18h9.05a.16.16,0,0,1,.18.18v.9a.16.16,0,0,1-.18.18H397.5V23.1h7.28a.16.16,0,0,1,.18.18v.85a.16.16,0,0,1-.18.18H397.5v6.74h7.87a.16.16,0,0,1,.18.18v.9a.16.16,0,0,1-.18.18Z"/><path class="cls-2" d="M416.22,32.31a.16.16,0,0,1-.18-.18V15.65a.16.16,0,0,1,.18-.18h4.37q3.84,0,5.74,1.8c1.26,1.2,1.9,3,1.9,5.5V24.6c0,2.62-.64,4.56-1.9,5.82s-3.18,1.89-5.74,1.89Zm1.18-1.18h3.12a6.53,6.53,0,0,0,4.79-1.57,6.71,6.71,0,0,0,1.56-4.89v-2a6,6,0,0,0-1.56-4.6,6.78,6.78,0,0,0-4.79-1.47H417.4Z"/><path class="cls-2" d="M429.93,32.31c-.14,0-.19-.06-.16-.18l6-16.53a.21.21,0,0,1,.21-.13h1.44a.19.19,0,0,1,.2.13l6,16.53c0,.12,0,.18-.15.18h-1.11a.19.19,0,0,1-.2-.13l-4.56-12.73c-.15-.46-.3-.92-.46-1.37s-.32-.92-.49-1.38h0c-.16.45-.31.9-.47,1.36s-.31.93-.48,1.39l-4.5,12.73a.23.23,0,0,1-.24.13Zm2.46-4.4.36-1.21h7.8l.36,1.21Z"/><path class="cls-2" d="M449,32.31q-.15,0-.15-.18V16.73h-5.06a.17.17,0,0,1-.19-.18v-.9a.17.17,0,0,1,.19-.18h11.46a.16.16,0,0,1,.18.18v.9a.16.16,0,0,1-.18.18h-5v15.4a.16.16,0,0,1-.18.18Z"/><path class="cls-2" d="M464.12,32.62a6.38,6.38,0,0,1-4.62-1.52,5.67,5.67,0,0,1-1.57-4.29V21a5.67,5.67,0,0,1,1.57-4.29,7.8,7.8,0,0,1,9.25,0A5.67,5.67,0,0,1,470.32,21v5.84a5.67,5.67,0,0,1-1.57,4.29A6.41,6.41,0,0,1,464.12,32.62Zm0-1.24a5,5,0,0,0,3.59-1.18A4.5,4.5,0,0,0,469,26.78V21a4.47,4.47,0,0,0-1.25-3.42,6,6,0,0,0-7.17,0A4.47,4.47,0,0,0,459.29,21v5.78a4.5,4.5,0,0,0,1.25,3.42A5,5,0,0,0,464.12,31.38Z"/><path class="cls-2" d="M479.24,32.62a6.36,6.36,0,0,1-4.34-1.22,4.3,4.3,0,0,1-1.26-3.49c0-.19.08-.28.2-.28h1c.14,0,.21.09.21.26a3.23,3.23,0,0,0,1,2.68,5.17,5.17,0,0,0,3.29.84,5.8,5.8,0,0,0,3.3-.73,2.64,2.64,0,0,0,1-2.33,3.41,3.41,0,0,0-.31-1.56,2.73,2.73,0,0,0-1-1,10.52,10.52,0,0,0-1.75-.87l-3.37-1.44a8.68,8.68,0,0,1-2-1.09A3.37,3.37,0,0,1,474.27,21a4.63,4.63,0,0,1-.32-1.84,3.49,3.49,0,0,1,1.41-3,6.59,6.59,0,0,1,3.91-1,7.81,7.81,0,0,1,3.06.53,4,4,0,0,1,1.86,1.53,4.21,4.21,0,0,1,.56,2.5q0,.3-.18.3h-1a.14.14,0,0,1-.12-.06.35.35,0,0,1-.06-.24,2.84,2.84,0,0,0-1-2.49,5,5,0,0,0-3.19-.86,5.25,5.25,0,0,0-2.87.66,2.32,2.32,0,0,0-1,2,3.15,3.15,0,0,0,.27,1.4,2.59,2.59,0,0,0,.87,1,10.73,10.73,0,0,0,1.64.89l3.37,1.44a11.66,11.66,0,0,1,2.1,1.14,3.42,3.42,0,0,1,1.15,1.38,5,5,0,0,1,.35,2,3.85,3.85,0,0,1-1.38,3.21A7.24,7.24,0,0,1,479.24,32.62Z"/><path class="cls-2" d="M494.75,26q-.18,0-.18-.15v-.75a.16.16,0,0,1,.18-.18H503a.16.16,0,0,1,.18.18v.75q0,.15-.18.15Z"/><path class="cls-2" d="M513.72,32.31a.16.16,0,0,1-.18-.18V15.65a.16.16,0,0,1,.18-.18h4.12a7.14,7.14,0,0,1,4.54,1.24,4.64,4.64,0,0,1,1.55,3.85,4.64,4.64,0,0,1-1.51,3.75,7,7,0,0,1-4.63,1.29h-2.88v6.53c0,.12,0,.18-.16.18Zm1.19-7.89h2.85a5.63,5.63,0,0,0,3.69-1,3.57,3.57,0,0,0,1.12-2.87,3.57,3.57,0,0,0-1.18-3,5.74,5.74,0,0,0-3.58-.93h-2.9Z"/><path class="cls-2" d="M527.79,32.31a.16.16,0,0,1-.18-.18V15.65a.16.16,0,0,1,.18-.18h4.89a6.8,6.8,0,0,1,4.24,1.13,4.09,4.09,0,0,1,1.46,3.47,4.66,4.66,0,0,1-1,3,4.56,4.56,0,0,1-2.77,1.58v0l4.55,7.4a.14.14,0,0,1,0,.15.16.16,0,0,1-.14.06h-1.21a.24.24,0,0,1-.21-.13l-4.49-7.33H529v7.28q0,.18-.15.18ZM529,23.72h3.5a5.32,5.32,0,0,0,3.48-.91A3.29,3.29,0,0,0,537,20.15a3.14,3.14,0,0,0-1.08-2.66,5.33,5.33,0,0,0-3.29-.84H529Z"/><path class="cls-2" d="M548.67,32.62A6.42,6.42,0,0,1,544,31.1a5.71,5.71,0,0,1-1.57-4.29V21A5.71,5.71,0,0,1,544,16.68a7.81,7.81,0,0,1,9.26,0A5.71,5.71,0,0,1,554.87,21v5.84a5.71,5.71,0,0,1-1.57,4.29A6.42,6.42,0,0,1,548.67,32.62Zm0-1.24a5,5,0,0,0,3.59-1.18,4.5,4.5,0,0,0,1.24-3.42V21a4.47,4.47,0,0,0-1.24-3.42,6,6,0,0,0-7.18,0A4.47,4.47,0,0,0,543.84,21v5.78a4.5,4.5,0,0,0,1.24,3.42A5,5,0,0,0,548.67,31.38Z"/><path class="cls-2" d="M562.63,32.31a.16.16,0,0,1-.18-.18V26.52l-5.68-10.85a.17.17,0,0,1,0-.14.14.14,0,0,1,.12-.06h1.21a.22.22,0,0,1,.2.13l3.42,6.66c.24.46.48.93.71,1.4s.47.94.71,1.4h0l.71-1.42.71-1.41L568,15.6a.19.19,0,0,1,.2-.13h1.18c.07,0,.12,0,.13.06a.17.17,0,0,1,0,.14l-5.71,10.85v5.61a.16.16,0,0,1-.18.18Z"/><path class="cls-2" d="M572.48,32.31a.16.16,0,0,1-.18-.18V15.65a.16.16,0,0,1,.18-.18h9a.16.16,0,0,1,.18.18v.9a.16.16,0,0,1-.18.18h-7.87V23.1h7.28a.16.16,0,0,1,.18.18v.85a.16.16,0,0,1-.18.18h-7.28v6.74h7.87a.16.16,0,0,1,.18.18v.9a.16.16,0,0,1-.18.18Z"/><path class="cls-2" d="M591.74,32.62a6.37,6.37,0,0,1-4.59-1.52,5.68,5.68,0,0,1-1.58-4.29V21a5.64,5.64,0,0,1,1.59-4.29,6.41,6.41,0,0,1,4.61-1.52,8.23,8.23,0,0,1,3.39.65,4.67,4.67,0,0,1,2.16,1.89,4.84,4.84,0,0,1,.54,3l-.06.15a.16.16,0,0,1-.15.08h-1q-.21,0-.15-.18a3.76,3.76,0,0,0-1.15-3.23,5.24,5.24,0,0,0-3.56-1.12,5.06,5.06,0,0,0-3.6,1.19A4.41,4.41,0,0,0,586.93,21v5.84a4.43,4.43,0,0,0,1.26,3.39,5.06,5.06,0,0,0,3.6,1.18,5.2,5.2,0,0,0,3.58-1.1A3.87,3.87,0,0,0,596.5,27q-.06-.18.15-.18h1c.11,0,.18.08.21.23a5.15,5.15,0,0,1-.62,3,4.74,4.74,0,0,1-2.12,1.9A7.72,7.72,0,0,1,591.74,32.62Z"/><path class="cls-2" d="M605.86,32.31c-.11,0-.16-.06-.16-.18V16.73h-5.06a.16.16,0,0,1-.18-.18v-.9a.16.16,0,0,1,.18-.18h11.47a.16.16,0,0,1,.18.18v.9a.16.16,0,0,1-.18.18h-5v15.4a.16.16,0,0,1-.18.18Z"/><path class="cls-2" d="M621,32.62a6.41,6.41,0,0,1-4.63-1.52,5.67,5.67,0,0,1-1.57-4.29V21a5.67,5.67,0,0,1,1.57-4.29,7.8,7.8,0,0,1,9.25,0A5.67,5.67,0,0,1,627.17,21v5.84a5.67,5.67,0,0,1-1.57,4.29A6.38,6.38,0,0,1,621,32.62Zm0-1.24a5,5,0,0,0,3.58-1.18,4.5,4.5,0,0,0,1.25-3.42V21a4.47,4.47,0,0,0-1.25-3.42,6,6,0,0,0-7.17,0A4.47,4.47,0,0,0,616.14,21v5.78a4.5,4.5,0,0,0,1.25,3.42A5,5,0,0,0,621,31.38Z"/><path class="cls-2" d="M637.82,32.31a.16.16,0,0,1-.18-.18V15.65a.16.16,0,0,1,.18-.18h9a.16.16,0,0,1,.18.18v.9a.16.16,0,0,1-.18.18H639v6.61h6.94c.11,0,.16.06.16.18v.84c0,.12-.05.18-.16.18H639v7.59q0,.18-.15.18Z"/><path class="cls-2" d="M650.93,32.31a.16.16,0,0,1-.18-.18V15.65a.16.16,0,0,1,.18-.18h1q.15,0,.15.18V32.13q0,.18-.15.18Z"/><path class="cls-2" d="M657.15,32.31a.16.16,0,0,1-.18-.18V15.65a.16.16,0,0,1,.18-.18H659a.2.2,0,0,1,.21.13l5.63,9.84c.38.67.74,1.31,1.09,1.91l1,1.75,1,1.67h0V15.65q0-.18.15-.18h1a.16.16,0,0,1,.18.18V32.13a.16.16,0,0,1-.18.18h-1.77a.17.17,0,0,1-.18-.13l-5.48-9.54c-.36-.65-.72-1.29-1.09-1.91l-1.09-1.87L658.36,17h-.05c0,.65,0,1.29,0,1.92s0,1.25,0,1.87V32.13a.16.16,0,0,1-.18.18Z"/><path class="cls-2" d="M671.94,32.31c-.14,0-.19-.06-.16-.18l6-16.53a.19.19,0,0,1,.2-.13h1.44a.21.21,0,0,1,.21.13l6,16.53q.06.18-.15.18h-1.11a.19.19,0,0,1-.2-.13l-4.55-12.73c-.16-.46-.31-.92-.47-1.37s-.31-.92-.48-1.38h0c-.15.45-.31.9-.46,1.36s-.32.93-.49,1.39l-4.5,12.73a.22.22,0,0,1-.23.13Zm2.47-4.4.36-1.21h7.79l.36,1.21Z"/><path class="cls-2" d="M688.39,32.31a.16.16,0,0,1-.18-.18V15.65a.16.16,0,0,1,.18-.18h1c.11,0,.16.06.16.18v15.4h7.74a.16.16,0,0,1,.18.18v.9a.16.16,0,0,1-.18.18Z"/><path class="cls-2" d="M712.69,37.07a.16.16,0,0,1-.18-.18V11.15a.16.16,0,0,1,.18-.18h1.06q.15,0,.15.18V36.89q0,.18-.15.18Z"/><path class="cls-2" d="M730.92,32.31a.16.16,0,0,1-.18-.18V15.65a.16.16,0,0,1,.18-.18h1.8a.19.19,0,0,1,.21.13l5.63,9.84c.38.67.74,1.31,1.09,1.91l1,1.75c.33.56.64,1.12,1,1.67h0V15.65q0-.18.15-.18h1a.16.16,0,0,1,.18.18V32.13a.16.16,0,0,1-.18.18H741a.17.17,0,0,1-.18-.13l-5.48-9.54c-.36-.65-.72-1.29-1.09-1.91l-1.09-1.87L732.13,17h0c0,.65,0,1.29,0,1.92s0,1.25,0,1.87V32.13a.16.16,0,0,1-.18.18Z"/><path class="cls-2" d="M748.25,17.45a.94.94,0,0,1-.73-.27,1,1,0,0,1-.24-.71v-.21a1,1,0,0,1,.24-.68.94.94,0,0,1,.73-.27,1,1,0,0,1,.74.27,1,1,0,0,1,.24.68v.21a1,1,0,0,1-.24.71A1,1,0,0,1,748.25,17.45Zm-.51,14.86a.16.16,0,0,1-.18-.18V20q0-.15.18-.15h1a.13.13,0,0,1,.15.15V32.13q0,.18-.15.18Z"/><path class="cls-2" d="M757.85,32.62a5.19,5.19,0,0,1-3.72-1.22,4.69,4.69,0,0,1-1.27-3.54V24.44a4.81,4.81,0,0,1,1.27-3.61,5.07,5.07,0,0,1,3.69-1.25,6.33,6.33,0,0,1,2.51.45,3.64,3.64,0,0,1,1.6,1.26,3.29,3.29,0,0,1,.57,1.94c0,.23-.06.34-.18.34h-1c-.1,0-.15-.09-.15-.26a2.18,2.18,0,0,0-.89-1.85,3.92,3.92,0,0,0-2.43-.67,3.56,3.56,0,0,0-2.7.94,4,4,0,0,0-.9,2.84v3.16a3.71,3.71,0,0,0,.91,2.74,4.58,4.58,0,0,0,5.16.22,2.34,2.34,0,0,0,.85-1.9c0-.17.05-.26.15-.26h1q.18,0,.18.15a3.69,3.69,0,0,1-1.17,2.9A5.11,5.11,0,0,1,757.85,32.62Z"/><path class="cls-2" d="M770.91,32.62a5.29,5.29,0,0,1-3.73-1.22,4.65,4.65,0,0,1-1.31-3.59V24.39a4.65,4.65,0,0,1,1.31-3.59,6.34,6.34,0,0,1,7.48,0A4.65,4.65,0,0,1,776,24.39v3.42a4.64,4.64,0,0,1-1.31,3.57A5.22,5.22,0,0,1,770.91,32.62Zm0-1.24a3.66,3.66,0,0,0,2.77-.95,3.8,3.8,0,0,0,.93-2.77V24.54a3.89,3.89,0,0,0-.93-2.79,4.45,4.45,0,0,0-5.52,0,3.89,3.89,0,0,0-.93,2.79v3.12a3.8,3.8,0,0,0,.93,2.77A3.63,3.63,0,0,0,770.91,31.38Z"/><path class="cls-2" d="M780.06,32.31a.16.16,0,0,1-.18-.18V14.93a.16.16,0,0,1,.18-.18h1q.15,0,.15.18v17.2q0,.18-.15.18Z"/><path class="cls-2" d="M787.88,32.62a2.78,2.78,0,0,1-2.25-.88,3.65,3.65,0,0,1-.76-2.49,3.85,3.85,0,0,1,.49-2,3.24,3.24,0,0,1,1.57-1.28,9.27,9.27,0,0,1,2.82-.61l3-.34v1.08l-3,.31a5.35,5.35,0,0,0-2.71.84,2.34,2.34,0,0,0-.79,2,2.53,2.53,0,0,0,.48,1.66,1.8,1.8,0,0,0,1.48.58,3.85,3.85,0,0,0,2.12-.75,13.52,13.52,0,0,0,2.53-2.34v1.32A15.6,15.6,0,0,1,791,31.37a6.1,6.1,0,0,1-1.6.95A4.15,4.15,0,0,1,787.88,32.62Zm5-.31a.18.18,0,0,1-.13-.06.44.44,0,0,1-.07-.17c0-.28-.05-.64-.09-1.09s-.08-.89-.09-1.3l0-.65V23.67a3.15,3.15,0,0,0-.63-2.21,2.85,2.85,0,0,0-2.15-.67c-1.87,0-2.8.72-2.8,2.16q0,.15-.18.15h-1c-.1,0-.16-.09-.18-.28a2.65,2.65,0,0,1,1-2.36,5.05,5.05,0,0,1,3.21-.88,4.16,4.16,0,0,1,3.09,1,4.18,4.18,0,0,1,1,3.09v5.69c0,.55,0,1.05,0,1.51s.07.9.12,1.29c0,.12,0,.18-.18.18Zm-4.34-14.37c-.12,0-.15-.06-.08-.18l1.72-3.09a.23.23,0,0,1,.21-.13h1.13a.09.09,0,0,1,.1.07.15.15,0,0,1,0,.14l-2,3.08a.18.18,0,0,1-.18.11Z"/><path class="cls-2" d="M801.84,32.62a4.85,4.85,0,0,1-3.28-.94,3.7,3.7,0,0,1-1.06-2.92.13.13,0,0,1,.15-.15h1.05c.11,0,.16,0,.16.13a2.56,2.56,0,0,0,.71,2.05,3.46,3.46,0,0,0,2.3.62,4.19,4.19,0,0,0,2.35-.53,1.78,1.78,0,0,0,.76-1.55,2.07,2.07,0,0,0-.41-1.33,4,4,0,0,0-1.42-.94l-3-1.31a5.15,5.15,0,0,1-1.93-1.28,2.94,2.94,0,0,1-.56-1.88,2.61,2.61,0,0,1,1.05-2.25,5.2,5.2,0,0,1,3.06-.76,5,5,0,0,1,3.2.86A3,3,0,0,1,806,22.9q0,.15-.18.15h-1c-.12,0-.18-.08-.18-.25a1.75,1.75,0,0,0-.69-1.48,3.51,3.51,0,0,0-2.13-.53,4.09,4.09,0,0,0-2.09.44,1.47,1.47,0,0,0-.72,1.36,1.76,1.76,0,0,0,.37,1.2,4.78,4.78,0,0,0,1.43.86l3,1.33a4.72,4.72,0,0,1,1.91,1.3,3.08,3.08,0,0,1,.58,2,3,3,0,0,1-1.12,2.51A5.51,5.51,0,0,1,801.84,32.62Z"/><path class="cls-2" d="M816.21,32.31a.16.16,0,0,1-.18-.18V15.65a.16.16,0,0,1,.18-.18h4.45a7,7,0,0,1,4.21,1,3.66,3.66,0,0,1,1.37,3.13,3.84,3.84,0,0,1-.72,2.39,4.3,4.3,0,0,1-2.23,1.44v0A4.85,4.85,0,0,1,826,24.84a3.94,3.94,0,0,1,1,2.82,4.13,4.13,0,0,1-1.49,3.52,8,8,0,0,1-4.81,1.13ZM817.4,23H821a4.33,4.33,0,0,0,2.87-.85,3,3,0,0,0,1-2.39,2.71,2.71,0,0,0-1-2.38,6,6,0,0,0-3.38-.73H817.4Zm0,8.07h3.31a6.68,6.68,0,0,0,3.8-.83,3.12,3.12,0,0,0,1.14-2.69A3,3,0,0,0,824.48,25a5.68,5.68,0,0,0-3.38-.85h-3.7Z"/><path class="cls-2" d="M835.19,32.62a5.3,5.3,0,0,1-3.73-1.22,4.69,4.69,0,0,1-1.31-3.59V24.39a4.69,4.69,0,0,1,1.31-3.59,6.36,6.36,0,0,1,7.49,0,4.69,4.69,0,0,1,1.31,3.59v3.42A4.67,4.67,0,0,1,839,31.38,5.26,5.26,0,0,1,835.19,32.62Zm0-1.24a3.7,3.7,0,0,0,2.78-.95,3.84,3.84,0,0,0,.92-2.77V24.54a3.93,3.93,0,0,0-.92-2.79,3.71,3.71,0,0,0-2.78-1,3.65,3.65,0,0,0-2.75,1,3.89,3.89,0,0,0-.93,2.79v3.12a3.8,3.8,0,0,0,.93,2.77A3.65,3.65,0,0,0,835.19,31.38Z"/><path class="cls-2" d="M844.34,32.31c-.12,0-.17-.06-.17-.18V22.82c0-.48,0-.95,0-1.4s-.07-.9-.12-1.35q0-.18.18-.18h.95a.18.18,0,0,1,.21.15c0,.38.09.78.11,1.21s0,.84,0,1.24l0,.85v8.79c0,.12,0,.18-.16.18Zm.93-8.33,0-1.39a9.76,9.76,0,0,1,1.25-1.44A7.08,7.08,0,0,1,848,20a3.38,3.38,0,0,1,1.63-.44,2.91,2.91,0,0,1,.77.08.17.17,0,0,1,.15.18,2.82,2.82,0,0,1,0,.64c0,.21,0,.41-.06.62s-.11.19-.26.15L850,21.2a3.62,3.62,0,0,0-.49,0,3.33,3.33,0,0,0-1.53.38,6.48,6.48,0,0,0-1.43,1A10.44,10.44,0,0,0,845.27,24Z"/><path class="cls-2" d="M852,37.09a.16.16,0,0,1-.24,0l-.64-.8a.17.17,0,0,1,0-.26,7,7,0,0,0,1.21-1.3,4.66,4.66,0,0,0,.73-1.54,7.2,7.2,0,0,0,.25-2V20c0-.05,0-.09,0-.11a.18.18,0,0,1,.13,0h1a.14.14,0,0,1,.15.15V31.2a9.68,9.68,0,0,1-.28,2.5,5.53,5.53,0,0,1-.89,1.86A7.77,7.77,0,0,1,852,37.09Zm2-19.64a.94.94,0,0,1-.73-.27,1,1,0,0,1-.24-.71v-.21a1,1,0,0,1,.24-.68.94.94,0,0,1,.73-.27,1,1,0,0,1,.74.27,1,1,0,0,1,.24.68v.21a1,1,0,0,1-.24.71A1,1,0,0,1,854,17.45Z"/><path class="cls-2" d="M861.31,32.62a2.81,2.81,0,0,1-2.25-.88,3.7,3.7,0,0,1-.75-2.49,4,4,0,0,1,.48-2,3.29,3.29,0,0,1,1.57-1.28,9.34,9.34,0,0,1,2.83-.61l3-.34v1.08l-3,.31a5.43,5.43,0,0,0-2.72.84,2.37,2.37,0,0,0-.78,2,2.58,2.58,0,0,0,.47,1.66,1.81,1.81,0,0,0,1.48.58,3.82,3.82,0,0,0,2.12-.75,13.53,13.53,0,0,0,2.54-2.34v1.32a14.85,14.85,0,0,1-1.82,1.73,5.9,5.9,0,0,1-1.59.95A4.2,4.2,0,0,1,861.31,32.62Zm5-.31a.16.16,0,0,1-.13-.06.67.67,0,0,1-.08-.17c0-.28,0-.64-.09-1.09s-.07-.89-.09-1.3l0-.65V23.67a3.15,3.15,0,0,0-.63-2.21,2.85,2.85,0,0,0-2.15-.67c-1.87,0-2.8.72-2.8,2.16q0,.15-.18.15h-1c-.1,0-.16-.09-.18-.28a2.65,2.65,0,0,1,1-2.36,5,5,0,0,1,3.21-.88,4.16,4.16,0,0,1,3.09,1,4.18,4.18,0,0,1,1,3.09v5.69c0,.55,0,1.05,0,1.51s.06.9.11,1.29q0,.18-.18.18Z"/></svg>